# xmcd
#
# Track frame offsets:
#	150
#	17790
#	38760
#
# Disc length: 765 seconds
#
# Revision: 0
# Processed by: cddbd v1.5.1PL0 Copyright (c) Steve Scherf et al.
# Submitted via: dBpowerAMP V4.0
#
DISCID=1a02fb03
DTITLE=Girls Against Boys - Park avenue
DYEAR=1998
DGENRE=New Wave
TTITLE0=Park avenue
TTITLE1=American white dwarf (Miami bassomatic remix)
TTITLE2=EPR
EXTD=
EXTT0=
EXTT1=
EXTT2=
PLAYORDER=
